<svg width="374" height="667" viewBox="0 0 374 667" fill="none" xmlns="http://www.w3.org/2000/svg">
<g clip-path="url(#clip0)">
<rect width="374" height="667" fill="#19A1AD"/>
<path opacity="0.5" d="M-116 276.663C64.5971 276.663 211 130.559 211 -49.6687C211 -229.897 64.5971 -376 -116 -376C-296.597 -376 -443 -229.897 -443 -49.6687C-443 130.559 -296.597 276.663 -116 276.663Z" fill="url(#paint0_linear)"/>
<g clip-path="url(#clip1)">
<path opacity="0.25" d="M500.5 348C689.105 348 842 500.895 842 689.5C842 878.105 689.105 1031 500.5 1031C311.895 1031 159 878.105 159 689.5C159 500.895 311.895 348 500.5 348Z" fill="url(#paint1_linear)"/>
</g>
</g>
<defs>
<linearGradient id="paint0_linear" x1="-116" y1="-370.916" x2="-116" y2="276.663" gradientUnits="userSpaceOnUse">
<stop stop-color="#0989B4" stop-opacity="0"/>
<stop offset="0.9994" stop-color="#53FFEE"/>
</linearGradient>
<linearGradient id="paint1_linear" x1="500.5" y1="1025.68" x2="500.5" y2="348" gradientUnits="userSpaceOnUse">
<stop stop-color="#0989B4" stop-opacity="0"/>
<stop offset="0.9994" stop-color="#53FFEE"/>
</linearGradient>
<clipPath id="clip0">
<rect width="374" height="667" fill="white"/>
</clipPath>
<clipPath id="clip1">
<rect width="683" height="683" fill="white" transform="translate(160 349)"/>
</clipPath>
</defs>
</svg>
